<svg xmlns="http://www.w3.org/2000/svg" version="1.1" xmlns:xlink="http://www.w3.org/1999/xlink" xmlns:svgjs="http://svgjs.dev/svgjs" width="1500" height="386" viewBox="0 0 1500 386"><g transform="matrix(1,0,0,1,-0.9090909090909918,0.2685905595468796)"><svg viewBox="0 0 396 102" data-background-color="#1d366f" preserveAspectRatio="xMidYMid meet" height="386" width="1500" xmlns="http://www.w3.org/2000/svg" xmlns:xlink="http://www.w3.org/1999/xlink"><g id="tight-bounds" transform="matrix(1,0,0,1,0.2400000000000091,-0.07097470744503198)"><svg viewBox="0 0 395.52 102.14194941489006" height="102.14194941489006" width="395.52"><g><svg viewBox="0 0 623.0807362161092 160.90888207923314" height="102.14194941489006" width="395.52"><g transform="matrix(1,0,0,1,225.58313621610932,0)"><svg viewBox="0 0 397.4975999999999 160.90888207923314" height="160.90888207923314" width="397.4975999999999"><g id="textblocktransform"><svg viewBox="0 0 397.4975999999999 160.90888207923314" height="160.90888207923314" width="397.4975999999999" id="textblock"><g><rect width="397.4975999999999" height="9.224250432121773" x="0" y="113.15219033397048" fill="#ffffff" opacity="1" stroke-width="0" stroke="transparent" fill-opacity="1" class="rect-qz-0" data-fill-palette-color="primary" rx="1%" id="qz-0" data-palette-color="#ffffff"></rect></g><g transform="matrix(1,0,0,1,0.9887999999999693,0)"><svg viewBox="0 0 395.52 102.28592673592128" height="102.28592673592128" width="395.52"><g transform="matrix(1,0,0,1,0,0)"><svg width="395.52" viewBox="4.95 -37.35 178.94 47.3" height="102.28592673592128" data-palette-color="#ffffff"><path d="M13.05-34.35Q10.75-34.35 9.58-33.1 8.4-31.85 8.4-29.4L8.4-29.4 8.4-26.3 16.5-26.3 16.5-23.3 8.5-23.3 8.5 0 4.95 0 4.95-29.55Q4.95-33.15 7.03-35.25 9.1-37.35 12.9-37.35L12.9-37.35Q14.4-37.35 15.8-36.93 17.2-36.5 18.15-35.7L18.15-35.7 16.95-33.05Q15.4-34.35 13.05-34.35L13.05-34.35ZM28.7 0.25Q25.15 0.25 23.22-1.75 21.3-3.75 21.3-7.3L21.3-7.3 21.3-37.1 24.85-37.1 24.85-7.6Q24.85-5.25 25.95-4.03 27.05-2.8 29.25-2.8L29.25-2.8Q30.65-2.8 31.65-3.25L31.65-3.25 31.9-0.3Q30.35 0.25 28.7 0.25L28.7 0.25ZM47.49-2.9Q49.95-2.9 52.02-3.78 54.09-4.65 55.55-6.35L55.55-6.35 57.55-4.05Q55.8-1.95 53.2-0.85 50.59 0.25 47.45 0.25L47.45 0.25Q43.39 0.25 40.24-1.48 37.09-3.2 35.34-6.25 33.59-9.3 33.59-13.15L33.59-13.15Q33.59-17 35.27-20.05 36.95-23.1 39.89-24.8 42.84-26.5 46.59-26.5L46.59-26.5Q50.09-26.5 52.92-24.9 55.75-23.3 57.42-20.45 59.09-17.6 59.2-13.95L59.2-13.95 37.59-9.75Q38.59-6.55 41.22-4.73 43.84-2.9 47.49-2.9L47.49-2.9ZM46.59-23.45Q43.84-23.45 41.67-22.18 39.49-20.9 38.27-18.63 37.05-16.35 37.05-13.4L37.05-13.4Q37.05-12.65 37.09-12.3L37.09-12.3 55.64-15.9Q55.05-19.2 52.59-21.33 50.14-23.45 46.59-23.45L46.59-23.45ZM86.49 0L82.44 0 74.09-11 65.69 0 61.69 0 72.09-13.5 62.19-26.3 66.19-26.3 74.09-16 81.99-26.3 85.89-26.3 75.99-13.5 86.49 0ZM105.94-26.5Q109.64-26.5 112.64-24.83 115.64-23.15 117.34-20.1 119.04-17.05 119.04-13.15L119.04-13.15Q119.04-9.2 117.34-6.15 115.64-3.1 112.67-1.43 109.69 0.25 105.94 0.25L105.94 0.25Q102.74 0.25 100.17-1.07 97.59-2.4 95.94-4.95L95.94-4.95 95.94 9.7 92.39 9.7 92.39-26.3 95.79-26.3 95.79-21.1Q97.39-23.7 100.02-25.1 102.64-26.5 105.94-26.5L105.94-26.5ZM105.69-2.9Q108.44-2.9 110.69-4.17 112.94-5.45 114.22-7.8 115.49-10.15 115.49-13.15L115.49-13.15Q115.49-16.15 114.22-18.48 112.94-20.8 110.69-22.1 108.44-23.4 105.69-23.4L105.69-23.4Q102.89-23.4 100.67-22.1 98.44-20.8 97.17-18.48 95.89-16.15 95.89-13.15L95.89-13.15Q95.89-10.15 97.17-7.8 98.44-5.45 100.67-4.17 102.89-2.9 105.69-2.9L105.69-2.9ZM146.74-26.3L150.29-26.3 150.29 0 146.89 0 146.89-5.2Q145.29-2.55 142.66-1.15 140.04 0.25 136.74 0.25L136.74 0.25Q133.04 0.25 130.04-1.45 127.04-3.15 125.34-6.2 123.64-9.25 123.64-13.15L123.64-13.15Q123.64-17.05 125.34-20.1 127.04-23.15 130.04-24.83 133.04-26.5 136.74-26.5L136.74-26.5Q139.94-26.5 142.51-25.18 145.09-23.85 146.74-21.3L146.74-21.3 146.74-26.3ZM137.04-2.9Q139.79-2.9 142.01-4.17 144.24-5.45 145.51-7.8 146.79-10.15 146.79-13.15L146.79-13.15Q146.79-16.15 145.51-18.5 144.24-20.85 142.01-22.13 139.79-23.4 137.04-23.4L137.04-23.4Q134.24-23.4 132.01-22.13 129.79-20.85 128.51-18.5 127.24-16.15 127.24-13.15L127.24-13.15Q127.24-10.15 128.51-7.8 129.79-5.45 132.01-4.17 134.24-2.9 137.04-2.9L137.04-2.9ZM180.34-26.3L183.89-26.3 183.89-3.2Q183.89 3.5 180.84 6.73 177.79 9.95 171.64 9.95L171.64 9.95Q168.19 9.95 165.11 8.88 162.04 7.8 160.14 5.9L160.14 5.9 161.94 3.2Q163.64 4.9 166.14 5.85 168.64 6.8 171.49 6.8L171.49 6.8Q176.04 6.8 178.19 4.48 180.34 2.15 180.34-2.75L180.34-2.75 180.34-5.8Q178.94-3.5 176.51-2.25 174.09-1 171.04-1L171.04-1Q165.89-1 162.91-3.88 159.94-6.75 159.94-12.3L159.94-12.3 159.94-26.3 163.49-26.3 163.49-12.65Q163.49-8.5 165.54-6.35 167.59-4.2 171.39-4.2L171.39-4.2Q175.54-4.2 177.94-6.73 180.34-9.25 180.34-13.75L180.34-13.75 180.34-26.3Z" opacity="1" transform="matrix(1,0,0,1,0,0)" fill="#ffffff" class="wordmark-text-0" data-fill-palette-color="primary" id="text-0"></path></svg></g></svg></g><g transform="matrix(1,0,0,1,0,133.24270436414147)"><svg viewBox="0 0 395.52 27.666177715091678" height="27.666177715091678" width="395.52"><g transform="matrix(1,0,0,1,0,0)"><svg width="395.52" viewBox="0.73 -38.26 553.85 38.75" height="27.666177715091678" data-palette-color="#08c076"><path d="M16.19-26.76L16.19-23.58 9.52-23.58 9.52 0 5.47 0 5.47-23.58 0.73-23.58 0.73-25.54 5.47-26.88 5.47-28.66Q5.47-32.03 6.47-34.14 7.47-36.25 9.38-37.26 11.28-38.26 14.01-38.26L14.01-38.26Q15.55-38.26 16.83-37.99 18.12-37.72 19.09-37.38L19.09-37.38 18.04-34.18Q17.21-34.45 16.17-34.68 15.14-34.91 14.06-34.91L14.06-34.91Q11.74-34.91 10.63-33.41 9.52-31.91 9.52-28.71L9.52-28.71 9.52-26.76 16.19-26.76ZM25.17-37.99L25.17 0 21.09 0 21.09-37.99 25.17-37.99ZM44.01-27.25L44.01-27.25Q47.43-27.25 49.87-25.73 52.31-24.22 53.61-21.5 54.9-18.77 54.9-15.14L54.9-15.14 54.9-12.62 36.42-12.62Q36.49-7.91 38.76-5.44 41.04-2.98 45.16-2.98L45.16-2.98Q47.7-2.98 49.65-3.44 51.61-3.91 53.71-4.81L53.71-4.81 53.71-1.25Q51.68-0.34 49.69 0.07 47.7 0.49 44.99 0.49L44.99 0.49Q41.13 0.49 38.26-1.09 35.4-2.66 33.81-5.71 32.22-8.76 32.22-13.18L32.22-13.18Q32.22-17.5 33.67-20.67 35.13-23.83 37.78-25.54 40.42-27.25 44.01-27.25ZM43.96-23.93L43.96-23.93Q40.72-23.93 38.79-21.8 36.86-19.68 36.49-15.87L36.49-15.87 50.65-15.87Q50.63-18.26 49.91-20.08 49.19-21.9 47.72-22.91 46.26-23.93 43.96-23.93ZM58.46 0L68.16-13.7 58.9-26.76 63.54-26.76 70.6-16.46 77.63-26.76 82.22-26.76 72.97-13.7 82.73 0 78.09 0 70.6-10.91 63.05 0 58.46 0ZM87.95-26.76L92.01-26.76 92.01 0 87.95 0 87.95-26.76ZM90.03-36.77L90.03-36.77Q91.03-36.77 91.75-36.12 92.47-35.47 92.47-34.11L92.47-34.11Q92.47-32.76 91.75-32.1 91.03-31.45 90.03-31.45L90.03-31.45Q88.98-31.45 88.28-32.1 87.59-32.76 87.59-34.11L87.59-34.11Q87.59-35.47 88.28-36.12 88.98-36.77 90.03-36.77ZM100.57-37.99L104.63-37.99 104.63-28.49Q104.63-26.86 104.54-25.32 104.46-23.78 104.41-22.92L104.41-22.92 104.63-22.92Q105.72-24.73 107.8-25.98 109.88-27.22 113.1-27.22L113.1-27.22Q118.13-27.22 121.12-23.74 124.11-20.26 124.11-13.4L124.11-13.4Q124.11-8.89 122.74-5.79 121.37-2.69 118.88-1.1 116.39 0.49 113 0.49L113 0.49Q109.83 0.49 107.79-0.7 105.75-1.88 104.65-3.59L104.65-3.59 104.33-3.59 103.5 0 100.57 0 100.57-37.99ZM112.44-23.83L112.44-23.83Q109.53-23.83 107.82-22.69 106.12-21.56 105.37-19.27 104.63-16.99 104.63-13.5L104.63-13.5 104.63-13.28Q104.63-8.23 106.31-5.55 108-2.88 112.44-2.88L112.44-2.88Q116.17-2.88 118.04-5.62 119.91-8.35 119.91-13.43L119.91-13.43Q119.91-18.6 118.07-21.22 116.22-23.83 112.44-23.83ZM131.16-26.76L135.21-26.76 135.21 0 131.16 0 131.16-26.76ZM133.24-36.77L133.24-36.77Q134.24-36.77 134.96-36.12 135.68-35.47 135.68-34.11L135.68-34.11Q135.68-32.76 134.96-32.1 134.24-31.45 133.24-31.45L133.24-31.45Q132.19-31.45 131.49-32.1 130.8-32.76 130.8-34.11L130.8-34.11Q130.8-35.47 131.49-36.12 132.19-36.77 133.24-36.77ZM147.86-37.99L147.86 0 143.78 0 143.78-37.99 147.86-37.99ZM156.4-26.76L160.45-26.76 160.45 0 156.4 0 156.4-26.76ZM158.48-36.77L158.48-36.77Q159.48-36.77 160.2-36.12 160.92-35.47 160.92-34.11L160.92-34.11Q160.92-32.76 160.2-32.1 159.48-31.45 158.48-31.45L158.48-31.45Q157.43-31.45 156.73-32.1 156.03-32.76 156.03-34.11L156.03-34.11Q156.03-35.47 156.73-36.12 157.43-36.77 158.48-36.77ZM178.54 0.49L178.54 0.49Q173.46 0.49 170.5-2.98 167.53-6.45 167.53-13.28L167.53-13.28Q167.53-20.19 170.56-23.72 173.59-27.25 178.62-27.25L178.62-27.25Q180.74-27.25 182.33-26.68 183.91-26.12 185.06-25.18 186.21-24.24 186.99-23.05L186.99-23.05 187.28-23.05Q187.18-23.8 187.09-25.12 186.99-26.44 186.99-27.27L186.99-27.27 186.99-37.99 191.04-37.99 191.04 0 187.77 0 187.16-3.81 186.99-3.81Q186.23-2.61 185.07-1.64 183.91-0.66 182.31-0.09 180.71 0.49 178.54 0.49ZM179.18-2.88L179.18-2.88Q183.47-2.88 185.26-5.32 187.04-7.76 187.04-12.57L187.04-12.57 187.04-13.31Q187.04-18.41 185.34-21.14 183.64-23.88 179.18-23.88L179.18-23.88Q175.44-23.88 173.59-21.01 171.73-18.14 171.73-13.18L171.73-13.18Q171.73-8.25 173.57-5.57 175.42-2.88 179.18-2.88ZM209.62-27.2L209.62-27.2Q214.4-27.2 216.72-25.05 219.04-22.9 219.04-18.19L219.04-18.19 219.04 0 216.09 0 215.31-3.96 215.11-3.96Q213.99-2.49 212.77-1.5 211.55-0.51 209.95-0.01 208.35 0.49 206.03 0.49L206.03 0.49Q203.59 0.49 201.7-0.37 199.8-1.22 198.72-2.95 197.63-4.69 197.63-7.35L197.63-7.35Q197.63-11.35 200.81-13.5 203.98-15.65 210.47-15.84L210.47-15.84 215.09-16.04 215.09-17.68Q215.09-21.14 213.6-22.53 212.11-23.93 209.4-23.93L209.4-23.93Q207.3-23.93 205.39-23.32 203.49-22.71 201.78-21.88L201.78-21.88 200.54-24.95Q202.34-25.88 204.69-26.54 207.03-27.2 209.62-27.2ZM215.04-10.72L215.04-13.18 210.96-13.01Q205.96-12.82 203.91-11.38 201.85-9.94 201.85-7.3L201.85-7.3Q201.85-5 203.25-3.91 204.64-2.81 206.93-2.81L206.93-2.81Q210.5-2.81 212.77-4.79 215.04-6.76 215.04-10.72L215.04-10.72ZM236.91 0.49L236.91 0.49Q231.83 0.49 228.87-2.98 225.9-6.45 225.9-13.28L225.9-13.28Q225.9-20.19 228.93-23.72 231.95-27.25 236.98-27.25L236.98-27.25Q239.11-27.25 240.7-26.68 242.28-26.12 243.43-25.18 244.58-24.24 245.36-23.05L245.36-23.05 245.65-23.05Q245.55-23.8 245.46-25.12 245.36-26.44 245.36-27.27L245.36-27.27 245.36-37.99 249.41-37.99 249.41 0 246.14 0 245.53-3.81 245.36-3.81Q244.6-2.61 243.44-1.64 242.28-0.66 240.68-0.09 239.08 0.49 236.91 0.49ZM237.55-2.88L237.55-2.88Q241.84-2.88 243.62-5.32 245.41-7.76 245.41-12.57L245.41-12.57 245.41-13.31Q245.41-18.41 243.71-21.14 242.01-23.88 237.55-23.88L237.55-23.88Q233.81-23.88 231.95-21.01 230.1-18.14 230.1-13.18L230.1-13.18Q230.1-8.25 231.94-5.57 233.79-2.88 237.55-2.88ZM268.28-27.25L268.28-27.25Q271.7-27.25 274.14-25.73 276.58-24.22 277.88-21.5 279.17-18.77 279.17-15.14L279.17-15.14 279.17-12.62 260.69-12.62Q260.76-7.91 263.03-5.44 265.3-2.98 269.43-2.98L269.43-2.98Q271.97-2.98 273.92-3.44 275.87-3.91 277.97-4.81L277.97-4.81 277.97-1.25Q275.95-0.34 273.96 0.07 271.97 0.49 269.26 0.49L269.26 0.49Q265.4 0.49 262.53-1.09 259.66-2.66 258.08-5.71 256.49-8.76 256.49-13.18L256.49-13.18Q256.49-17.5 257.94-20.67 259.39-23.83 262.04-25.54 264.69-27.25 268.28-27.25ZM268.23-23.93L268.23-23.93Q264.98-23.93 263.06-21.8 261.13-19.68 260.76-15.87L260.76-15.87 274.92-15.87Q274.9-18.26 274.18-20.08 273.46-21.9 271.99-22.91 270.53-23.93 268.23-23.93ZM309.34-27.25L309.34-27.25Q312.76-27.25 315.2-25.73 317.64-24.22 318.93-21.5 320.23-18.77 320.23-15.14L320.23-15.14 320.23-12.62 301.75-12.62Q301.82-7.91 304.09-5.44 306.36-2.98 310.49-2.98L310.49-2.98Q313.03-2.98 314.98-3.44 316.93-3.91 319.03-4.81L319.03-4.81 319.03-1.25Q317.01-0.34 315.02 0.07 313.03 0.49 310.32 0.49L310.32 0.49Q306.46 0.49 303.59-1.09 300.72-2.66 299.13-5.71 297.55-8.76 297.55-13.18L297.55-13.18Q297.55-17.5 299-20.67 300.45-23.83 303.1-25.54 305.75-27.25 309.34-27.25ZM309.29-23.93L309.29-23.93Q306.04-23.93 304.12-21.8 302.19-19.68 301.82-15.87L301.82-15.87 315.98-15.87Q315.96-18.26 315.24-20.08 314.52-21.9 313.05-22.91 311.59-23.93 309.29-23.93ZM344.17-37.99L344.17 0 340.1 0 340.1-37.99 344.17-37.99ZM352.72-26.76L356.77-26.76 356.77 0 352.72 0 352.72-26.76ZM354.79-36.77L354.79-36.77Q355.79-36.77 356.51-36.12 357.23-35.47 357.23-34.11L357.23-34.11Q357.23-32.76 356.51-32.1 355.79-31.45 354.79-31.45L354.79-31.45Q353.74-31.45 353.05-32.1 352.35-32.76 352.35-34.11L352.35-34.11Q352.35-35.47 353.05-36.12 353.74-36.77 354.79-36.77ZM365.34-37.99L369.39-37.99 369.39-28.49Q369.39-26.86 369.3-25.32 369.22-23.78 369.17-22.92L369.17-22.92 369.39-22.92Q370.49-24.73 372.56-25.98 374.64-27.22 377.86-27.22L377.86-27.22Q382.89-27.22 385.88-23.74 388.87-20.26 388.87-13.4L388.87-13.4Q388.87-8.89 387.5-5.79 386.14-2.69 383.65-1.1 381.16 0.49 377.76 0.49L377.76 0.49Q374.59 0.49 372.55-0.7 370.51-1.88 369.41-3.59L369.41-3.59 369.1-3.59 368.27 0 365.34 0 365.34-37.99ZM377.2-23.83L377.2-23.83Q374.3-23.83 372.59-22.69 370.88-21.56 370.13-19.27 369.39-16.99 369.39-13.5L369.39-13.5 369.39-13.28Q369.39-8.23 371.07-5.55 372.76-2.88 377.2-2.88L377.2-2.88Q380.94-2.88 382.8-5.62 384.67-8.35 384.67-13.43L384.67-13.43Q384.67-18.6 382.83-21.22 380.99-23.83 377.2-23.83ZM406.23-27.25L406.23-27.25Q409.64-27.25 412.09-25.73 414.53-24.22 415.82-21.5 417.12-18.77 417.12-15.14L417.12-15.14 417.12-12.62 398.63-12.62Q398.71-7.91 400.98-5.44 403.25-2.98 407.37-2.98L407.37-2.98Q409.91-2.98 411.87-3.44 413.82-3.91 415.92-4.81L415.92-4.81 415.92-1.25Q413.89-0.34 411.9 0.07 409.91 0.49 407.2 0.49L407.2 0.49Q403.35 0.49 400.48-1.09 397.61-2.66 396.02-5.71 394.43-8.76 394.43-13.18L394.43-13.18Q394.43-17.5 395.89-20.67 397.34-23.83 399.99-25.54 402.64-27.25 406.23-27.25ZM406.18-23.93L406.18-23.93Q402.93-23.93 401-21.8 399.07-19.68 398.71-15.87L398.71-15.87 412.87-15.87Q412.84-18.26 412.12-20.08 411.4-21.9 409.94-22.91 408.47-23.93 406.18-23.93ZM436.16-27.25L436.16-27.25Q436.96-27.25 437.84-27.16 438.72-27.08 439.4-26.93L439.4-26.93 438.89-23.17Q438.23-23.34 437.43-23.44 436.62-23.54 435.91-23.54L435.91-23.54Q434.3-23.54 432.87-22.89 431.44-22.24 430.37-21.03 429.3-19.82 428.69-18.13 428.08-16.43 428.08-14.36L428.08-14.36 428.08 0 424 0 424-26.76 427.37-26.76 427.81-21.83 427.98-21.83Q428.81-23.32 429.98-24.55 431.15-25.78 432.7-26.51 434.25-27.25 436.16-27.25ZM453.95 0.49L453.95 0.49Q448.87 0.49 445.91-2.98 442.94-6.45 442.94-13.28L442.94-13.28Q442.94-20.19 445.97-23.72 449-27.25 454.02-27.25L454.02-27.25Q456.15-27.25 457.74-26.68 459.32-26.12 460.47-25.18 461.62-24.24 462.4-23.05L462.4-23.05 462.69-23.05Q462.59-23.8 462.5-25.12 462.4-26.44 462.4-27.27L462.4-27.27 462.4-37.99 466.45-37.99 466.45 0 463.18 0 462.57-3.81 462.4-3.81Q461.64-2.61 460.48-1.64 459.32-0.66 457.72-0.09 456.12 0.49 453.95 0.49ZM454.59-2.88L454.59-2.88Q458.88-2.88 460.67-5.32 462.45-7.76 462.45-12.57L462.45-12.57 462.45-13.31Q462.45-18.41 460.75-21.14 459.05-23.88 454.59-23.88L454.59-23.88Q450.85-23.88 449-21.01 447.14-18.14 447.14-13.18L447.14-13.18Q447.14-8.25 448.98-5.57 450.83-2.88 454.59-2.88ZM485.03-27.2L485.03-27.2Q489.81-27.2 492.13-25.05 494.45-22.9 494.45-18.19L494.45-18.19 494.45 0 491.5 0 490.72-3.96 490.52-3.96Q489.4-2.49 488.18-1.5 486.96-0.51 485.36-0.01 483.76 0.49 481.44 0.49L481.44 0.49Q479 0.49 477.11-0.37 475.21-1.22 474.13-2.95 473.04-4.69 473.04-7.35L473.04-7.35Q473.04-11.35 476.21-13.5 479.39-15.65 485.88-15.84L485.88-15.84 490.5-16.04 490.5-17.68Q490.5-21.14 489.01-22.53 487.52-23.93 484.81-23.93L484.81-23.93Q482.71-23.93 480.8-23.32 478.9-22.71 477.19-21.88L477.19-21.88 475.95-24.95Q477.75-25.88 480.1-26.54 482.44-27.2 485.03-27.2ZM490.45-10.72L490.45-13.18 486.37-13.01Q481.37-12.82 479.32-11.38 477.26-9.94 477.26-7.3L477.26-7.3Q477.26-5 478.66-3.91 480.05-2.81 482.34-2.81L482.34-2.81Q485.91-2.81 488.18-4.79 490.45-6.76 490.45-10.72L490.45-10.72ZM512.32 0.49L512.32 0.49Q507.24 0.49 504.28-2.98 501.31-6.45 501.31-13.28L501.31-13.28Q501.31-20.19 504.34-23.72 507.36-27.25 512.39-27.25L512.39-27.25Q514.52-27.25 516.1-26.68 517.69-26.12 518.84-25.18 519.99-24.24 520.77-23.05L520.77-23.05 521.06-23.05Q520.96-23.8 520.87-25.12 520.77-26.44 520.77-27.27L520.77-27.27 520.77-37.99 524.82-37.99 524.82 0 521.55 0 520.94-3.81 520.77-3.81Q520.01-2.61 518.85-1.64 517.69-0.66 516.09-0.09 514.49 0.49 512.32 0.49ZM512.96-2.88L512.96-2.88Q517.25-2.88 519.03-5.32 520.82-7.76 520.82-12.57L520.82-12.57 520.82-13.31Q520.82-18.41 519.12-21.14 517.42-23.88 512.96-23.88L512.96-23.88Q509.22-23.88 507.36-21.01 505.51-18.14 505.51-13.18L505.51-13.18Q505.51-8.25 507.35-5.57 509.2-2.88 512.96-2.88ZM543.69-27.25L543.69-27.25Q547.11-27.25 549.55-25.73 551.99-24.22 553.28-21.5 554.58-18.77 554.58-15.14L554.58-15.14 554.58-12.62 536.1-12.62Q536.17-7.91 538.44-5.44 540.71-2.98 544.84-2.98L544.84-2.98Q547.38-2.98 549.33-3.44 551.28-3.91 553.38-4.81L553.38-4.81 553.38-1.25Q551.36-0.34 549.37 0.07 547.38 0.49 544.67 0.49L544.67 0.49Q540.81 0.49 537.94-1.09 535.07-2.66 533.48-5.71 531.9-8.76 531.9-13.18L531.9-13.18Q531.9-17.5 533.35-20.67 534.8-23.83 537.45-25.54 540.1-27.25 543.69-27.25ZM543.64-23.93L543.64-23.93Q540.39-23.93 538.47-21.8 536.54-19.68 536.17-15.87L536.17-15.87 550.33-15.87Q550.31-18.26 549.59-20.08 548.87-21.9 547.4-22.91 545.94-23.93 543.64-23.93Z" opacity="1" transform="matrix(1,0,0,1,0,0)" fill="#08c076" class="slogan-text-1" data-fill-palette-color="secondary" id="text-1"></path></svg></g></svg></g></svg></g></svg></g><g transform="matrix(1,0,0,1,0,6.689187825870107)"><svg viewBox="0 0 201.43588377599997 147.53050642749292" height="147.53050642749292" width="201.43588377599997"><g><svg xmlns="http://www.w3.org/2000/svg" xmlns:xlink="http://www.w3.org/1999/xlink" version="1.1" x="0" y="0" viewBox="14 24 71 52" enable-background="new 0 0 100 100" xml:space="preserve" height="147.53050642749292" width="201.43588377599997" class="icon-icon-0" data-fill-palette-color="accent" id="icon-0"><g fill="#08c076" data-fill-palette-color="accent"><g fill="#08c076" data-fill-palette-color="accent"><g fill="#08c076" data-fill-palette-color="accent"><path d="M27 61h-8.5c-2.1 0-4.5-1.7-4.5-4V28c0-2.3 2.4-4 4.5-4h48c2.1 0 3.5 1.6 3.5 4v9h-2v-9c0-0.6-0.1-2-1.5-2h-48c-1.1 0-2.5 0.9-2.5 2v29c0 1.1 1.4 2 2.5 2H27V61z" fill="#08c076" data-fill-palette-color="accent"></path></g><g fill="#08c076" data-fill-palette-color="accent"><rect x="21" y="45" width="6" height="2" fill="#08c076" data-fill-palette-color="accent"></rect></g><g fill="#08c076" data-fill-palette-color="accent"><rect x="21" y="52" width="6" height="2" fill="#08c076" data-fill-palette-color="accent"></rect></g><g fill="#08c076" data-fill-palette-color="accent"><rect x="15" y="32" width="54" height="2" fill="#08c076" data-fill-palette-color="accent"></rect></g><g fill="#08c076" data-fill-palette-color="accent"><rect x="15" y="39" width="12" height="2" fill="#08c076" data-fill-palette-color="accent"></rect></g></g><g fill="#08c076" data-fill-palette-color="accent"><g fill="#08c076" data-fill-palette-color="accent"><path d="M81 76H33c-2.2 0-4-1.8-4-4V43c0-2.2 1.8-4 4-4h48c2.2 0 4 1.8 4 4v29C85 74.2 83.2 76 81 76zM33 41c-1.1 0-2 0.9-2 2v29c0 1.1 0.9 2 2 2h48c1.1 0 2-0.9 2-2V43c0-1.1-0.9-2-2-2H33z" fill="#08c076" data-fill-palette-color="accent"></path></g><g fill="#08c076" data-fill-palette-color="accent"><rect x="36" y="60" width="36" height="2" fill="#08c076" data-fill-palette-color="accent"></rect></g><g fill="#08c076" data-fill-palette-color="accent"><rect x="36" y="67" width="15" height="2" fill="#08c076" data-fill-palette-color="accent"></rect></g><g fill="#08c076" data-fill-palette-color="accent"><rect x="30" y="47" width="54" height="2" fill="#08c076" data-fill-palette-color="accent"></rect></g><g fill="#08c076" data-fill-palette-color="accent"><rect x="30" y="54" width="54" height="2" fill="#08c076" data-fill-palette-color="accent"></rect></g></g></g></svg></g></svg></g></svg></g><defs></defs></svg><rect width="395.52" height="102.14194941489006" fill="none" stroke="none" visibility="hidden"></rect></g></svg></g></svg>